<mxfile host="app.diagrams.net" modified="2024-05-04T09:58:24.161Z" agent="5.0 (Macintosh; Intel Mac OS X 10_15_7) AppleWebKit/537.36 (KHTML, like Gecko) Chrome/123.0.0.0 Safari/537.36" etag="_XvQ5jvnmH_XZMfi0nKE" version="20.8.20" type="github">
  <diagram name="페이지-1" id="CO5IYRSJ62aX2WVWTidS">
    <mxGraphModel dx="1026" dy="650" grid="1" gridSize="10" guides="1" tooltips="1" connect="1" arrows="1" fold="1" page="1" pageScale="1" pageWidth="827" pageHeight="1169" math="0" shadow="0">
      <root>
        <mxCell id="0" />
        <mxCell id="1" parent="0" />
        <mxCell id="0Npyd-gI6Yo2aAy_DU3O-1" value="이용자&lt;br&gt;" style="shape=umlActor;verticalLabelPosition=bottom;verticalAlign=top;html=1;" vertex="1" parent="1">
          <mxGeometry x="40" y="150" width="30" height="60" as="geometry" />
        </mxCell>
        <mxCell id="0Npyd-gI6Yo2aAy_DU3O-2" value="게시판 서비스" style="shape=umlFrame;whiteSpace=wrap;html=1;pointerEvents=0;width=90;height=30;" vertex="1" parent="1">
          <mxGeometry x="125" y="43" width="590" height="580" as="geometry" />
        </mxCell>
        <mxCell id="0Npyd-gI6Yo2aAy_DU3O-15" style="rounded=0;orthogonalLoop=1;jettySize=auto;html=1;startArrow=none;startFill=0;endArrow=none;endFill=0;" edge="1" parent="1" source="0Npyd-gI6Yo2aAy_DU3O-3" target="0Npyd-gI6Yo2aAy_DU3O-1">
          <mxGeometry relative="1" as="geometry" />
        </mxCell>
        <mxCell id="0Npyd-gI6Yo2aAy_DU3O-3" value="회원 가입" style="rounded=1;whiteSpace=wrap;html=1;arcSize=40;fontColor=#000000;fillColor=#ffffc0;strokeColor=#ff0000;" vertex="1" parent="1">
          <mxGeometry x="200" y="170" width="100" height="40" as="geometry" />
        </mxCell>
        <mxCell id="0Npyd-gI6Yo2aAy_DU3O-17" style="edgeStyle=none;rounded=0;orthogonalLoop=1;jettySize=auto;html=1;startArrow=none;startFill=0;endArrow=none;endFill=0;" edge="1" parent="1" source="0Npyd-gI6Yo2aAy_DU3O-5">
          <mxGeometry relative="1" as="geometry">
            <mxPoint x="80" y="180" as="targetPoint" />
          </mxGeometry>
        </mxCell>
        <mxCell id="0Npyd-gI6Yo2aAy_DU3O-23" style="edgeStyle=none;rounded=0;orthogonalLoop=1;jettySize=auto;html=1;entryX=0.642;entryY=1.025;entryDx=0;entryDy=0;entryPerimeter=0;startArrow=none;startFill=0;endArrow=classic;endFill=1;dashed=1;" edge="1" parent="1" source="0Npyd-gI6Yo2aAy_DU3O-5" target="0Npyd-gI6Yo2aAy_DU3O-7">
          <mxGeometry relative="1" as="geometry" />
        </mxCell>
        <mxCell id="0Npyd-gI6Yo2aAy_DU3O-32" style="edgeStyle=none;rounded=0;orthogonalLoop=1;jettySize=auto;html=1;startArrow=none;startFill=0;endArrow=none;endFill=0;" edge="1" parent="1" source="0Npyd-gI6Yo2aAy_DU3O-5" target="0Npyd-gI6Yo2aAy_DU3O-29">
          <mxGeometry relative="1" as="geometry" />
        </mxCell>
        <mxCell id="0Npyd-gI6Yo2aAy_DU3O-5" value="게시판 보기" style="rounded=1;whiteSpace=wrap;html=1;arcSize=40;fontColor=#000000;fillColor=#ffffc0;strokeColor=#ff0000;" vertex="1" parent="1">
          <mxGeometry x="190" y="290" width="120" height="40" as="geometry" />
        </mxCell>
        <mxCell id="0Npyd-gI6Yo2aAy_DU3O-18" style="edgeStyle=none;rounded=0;orthogonalLoop=1;jettySize=auto;html=1;startArrow=none;startFill=0;endArrow=none;endFill=0;" edge="1" parent="1" source="0Npyd-gI6Yo2aAy_DU3O-6">
          <mxGeometry relative="1" as="geometry">
            <mxPoint x="80" y="180" as="targetPoint" />
          </mxGeometry>
        </mxCell>
        <mxCell id="0Npyd-gI6Yo2aAy_DU3O-24" style="edgeStyle=none;rounded=0;orthogonalLoop=1;jettySize=auto;html=1;entryX=0.75;entryY=1;entryDx=0;entryDy=0;dashed=1;startArrow=none;startFill=0;endArrow=classic;endFill=1;" edge="1" parent="1" source="0Npyd-gI6Yo2aAy_DU3O-6" target="0Npyd-gI6Yo2aAy_DU3O-7">
          <mxGeometry relative="1" as="geometry" />
        </mxCell>
        <mxCell id="0Npyd-gI6Yo2aAy_DU3O-33" style="edgeStyle=none;rounded=0;orthogonalLoop=1;jettySize=auto;html=1;startArrow=none;startFill=0;endArrow=none;endFill=0;" edge="1" parent="1" source="0Npyd-gI6Yo2aAy_DU3O-6" target="0Npyd-gI6Yo2aAy_DU3O-29">
          <mxGeometry relative="1" as="geometry" />
        </mxCell>
        <mxCell id="0Npyd-gI6Yo2aAy_DU3O-6" value="게시글 보기" style="rounded=1;whiteSpace=wrap;html=1;arcSize=40;fontColor=#000000;fillColor=#ffffc0;strokeColor=#ff0000;" vertex="1" parent="1">
          <mxGeometry x="190" y="450" width="120" height="40" as="geometry" />
        </mxCell>
        <mxCell id="0Npyd-gI6Yo2aAy_DU3O-16" style="edgeStyle=none;rounded=0;orthogonalLoop=1;jettySize=auto;html=1;startArrow=none;startFill=0;endArrow=none;endFill=0;" edge="1" parent="1" source="0Npyd-gI6Yo2aAy_DU3O-7">
          <mxGeometry relative="1" as="geometry">
            <mxPoint x="80" y="180" as="targetPoint" />
          </mxGeometry>
        </mxCell>
        <mxCell id="0Npyd-gI6Yo2aAy_DU3O-19" value="&amp;lt;&amp;lt;include&amp;gt;&amp;gt;" style="edgeStyle=none;rounded=0;orthogonalLoop=1;jettySize=auto;html=1;startArrow=none;startFill=0;endArrow=classic;endFill=1;dashed=1;" edge="1" parent="1" source="0Npyd-gI6Yo2aAy_DU3O-7" target="0Npyd-gI6Yo2aAy_DU3O-8">
          <mxGeometry relative="1" as="geometry" />
        </mxCell>
        <mxCell id="0Npyd-gI6Yo2aAy_DU3O-22" value="&amp;lt;&amp;lt;extend&amp;gt;&amp;gt;" style="edgeStyle=none;rounded=0;orthogonalLoop=1;jettySize=auto;html=1;startArrow=classic;startFill=1;endArrow=none;endFill=0;dashed=1;entryX=0;entryY=0.5;entryDx=0;entryDy=0;" edge="1" parent="1" source="0Npyd-gI6Yo2aAy_DU3O-7" target="0Npyd-gI6Yo2aAy_DU3O-9">
          <mxGeometry relative="1" as="geometry">
            <mxPoint x="550" y="190" as="targetPoint" />
          </mxGeometry>
        </mxCell>
        <mxCell id="0Npyd-gI6Yo2aAy_DU3O-7" value="회원 로그인" style="rounded=1;whiteSpace=wrap;html=1;arcSize=40;fontColor=#000000;fillColor=#ffffc0;strokeColor=#ff0000;" vertex="1" parent="1">
          <mxGeometry x="294" y="90" width="120" height="40" as="geometry" />
        </mxCell>
        <mxCell id="0Npyd-gI6Yo2aAy_DU3O-31" style="edgeStyle=none;rounded=0;orthogonalLoop=1;jettySize=auto;html=1;entryX=0;entryY=0.25;entryDx=0;entryDy=0;startArrow=none;startFill=0;endArrow=none;endFill=0;" edge="1" parent="1" source="0Npyd-gI6Yo2aAy_DU3O-8" target="0Npyd-gI6Yo2aAy_DU3O-29">
          <mxGeometry relative="1" as="geometry" />
        </mxCell>
        <mxCell id="0Npyd-gI6Yo2aAy_DU3O-8" value="인증" style="rounded=1;whiteSpace=wrap;html=1;arcSize=40;fontColor=#000000;fillColor=#ffffc0;strokeColor=#ff0000;" vertex="1" parent="1">
          <mxGeometry x="550" y="90" width="120" height="40" as="geometry" />
        </mxCell>
        <mxCell id="0Npyd-gI6Yo2aAy_DU3O-9" value="로그인 실패" style="rounded=1;whiteSpace=wrap;html=1;arcSize=40;fontColor=#000000;fillColor=#ffffc0;strokeColor=#ff0000;" vertex="1" parent="1">
          <mxGeometry x="550" y="160" width="120" height="40" as="geometry" />
        </mxCell>
        <mxCell id="0Npyd-gI6Yo2aAy_DU3O-25" style="edgeStyle=none;rounded=0;orthogonalLoop=1;jettySize=auto;html=1;entryX=1;entryY=0.5;entryDx=0;entryDy=0;dashed=1;startArrow=none;startFill=0;endArrow=classic;endFill=1;" edge="1" parent="1" source="0Npyd-gI6Yo2aAy_DU3O-10" target="0Npyd-gI6Yo2aAy_DU3O-5">
          <mxGeometry relative="1" as="geometry" />
        </mxCell>
        <mxCell id="0Npyd-gI6Yo2aAy_DU3O-10" value="게시판 정렬" style="rounded=1;whiteSpace=wrap;html=1;arcSize=40;fontColor=#000000;fillColor=#ffffc0;strokeColor=#ff0000;" vertex="1" parent="1">
          <mxGeometry x="380" y="310" width="120" height="40" as="geometry" />
        </mxCell>
        <mxCell id="0Npyd-gI6Yo2aAy_DU3O-26" style="edgeStyle=none;rounded=0;orthogonalLoop=1;jettySize=auto;html=1;dashed=1;startArrow=none;startFill=0;endArrow=classic;endFill=1;" edge="1" parent="1" source="0Npyd-gI6Yo2aAy_DU3O-11">
          <mxGeometry relative="1" as="geometry">
            <mxPoint x="310" y="320" as="targetPoint" />
          </mxGeometry>
        </mxCell>
        <mxCell id="0Npyd-gI6Yo2aAy_DU3O-11" value="게시판 검색" style="rounded=1;whiteSpace=wrap;html=1;arcSize=40;fontColor=#000000;fillColor=#ffffc0;strokeColor=#ff0000;" vertex="1" parent="1">
          <mxGeometry x="414" y="410" width="120" height="40" as="geometry" />
        </mxCell>
        <mxCell id="0Npyd-gI6Yo2aAy_DU3O-27" style="edgeStyle=none;rounded=0;orthogonalLoop=1;jettySize=auto;html=1;entryX=1;entryY=0.75;entryDx=0;entryDy=0;dashed=1;startArrow=none;startFill=0;endArrow=classic;endFill=1;" edge="1" parent="1" source="0Npyd-gI6Yo2aAy_DU3O-12" target="0Npyd-gI6Yo2aAy_DU3O-6">
          <mxGeometry relative="1" as="geometry" />
        </mxCell>
        <mxCell id="0Npyd-gI6Yo2aAy_DU3O-34" style="edgeStyle=none;rounded=0;orthogonalLoop=1;jettySize=auto;html=1;startArrow=none;startFill=0;endArrow=none;endFill=0;" edge="1" parent="1" source="0Npyd-gI6Yo2aAy_DU3O-12" target="0Npyd-gI6Yo2aAy_DU3O-29">
          <mxGeometry relative="1" as="geometry" />
        </mxCell>
        <mxCell id="0Npyd-gI6Yo2aAy_DU3O-12" value="게시글 쓰기, 수정, 삭제" style="rounded=1;whiteSpace=wrap;html=1;arcSize=40;fontColor=#000000;fillColor=#ffffc0;strokeColor=#ff0000;" vertex="1" parent="1">
          <mxGeometry x="414" y="470" width="120" height="40" as="geometry" />
        </mxCell>
        <mxCell id="0Npyd-gI6Yo2aAy_DU3O-28" style="edgeStyle=none;rounded=0;orthogonalLoop=1;jettySize=auto;html=1;dashed=1;startArrow=none;startFill=0;endArrow=classic;endFill=1;" edge="1" parent="1" source="0Npyd-gI6Yo2aAy_DU3O-13" target="0Npyd-gI6Yo2aAy_DU3O-6">
          <mxGeometry relative="1" as="geometry" />
        </mxCell>
        <mxCell id="0Npyd-gI6Yo2aAy_DU3O-35" style="edgeStyle=none;rounded=0;orthogonalLoop=1;jettySize=auto;html=1;startArrow=none;startFill=0;endArrow=none;endFill=0;" edge="1" parent="1" source="0Npyd-gI6Yo2aAy_DU3O-13" target="0Npyd-gI6Yo2aAy_DU3O-29">
          <mxGeometry relative="1" as="geometry" />
        </mxCell>
        <mxCell id="0Npyd-gI6Yo2aAy_DU3O-13" value="댓글 보기, 쓰기,&lt;br&gt;수정, 삭제" style="rounded=1;whiteSpace=wrap;html=1;arcSize=40;fontColor=#000000;fillColor=#ffffc0;strokeColor=#ff0000;" vertex="1" parent="1">
          <mxGeometry x="414" y="540" width="120" height="40" as="geometry" />
        </mxCell>
        <mxCell id="0Npyd-gI6Yo2aAy_DU3O-29" value="DB" style="html=1;dropTarget=0;" vertex="1" parent="1">
          <mxGeometry x="750" y="200" width="60" height="70" as="geometry" />
        </mxCell>
      </root>
    </mxGraphModel>
  </diagram>
</mxfile>
